<svg xmlns="http://www.w3.org/2000/svg" xmlns:xlink="http://www.w3.org/1999/xlink" width="500" zoomAndPan="magnify" viewBox="0 0 375 74.999997" height="100" preserveAspectRatio="xMidYMid meet" version="1.0"><defs><g/><clipPath id="23a610d5de"><path d="M 104.734375 13.796875 L 148.984375 13.796875 L 148.984375 48 L 104.734375 48 Z M 104.734375 13.796875 " clip-rule="nonzero"/></clipPath></defs><g clip-path="url(#23a610d5de)"><path fill="#60941a" d="M 146.113281 27.707031 L 146.113281 23.976562 C 146.113281 22.425781 144.84375 21.15625 143.289062 21.15625 L 117.996094 21.15625 L 136.101562 19.179688 L 136.101562 15.894531 C 136.101562 15.246094 135.820312 14.691406 135.300781 14.304688 C 134.78125 13.917969 134.171875 13.8125 133.550781 14 L 111.175781 20.730469 C 110.328125 20.988281 109.765625 21.738281 109.765625 22.628906 L 109.765625 29.015625 L 117.367188 29.015625 C 118.671875 29.015625 119.738281 30.078125 119.738281 31.382812 C 119.738281 32.683594 118.671875 33.75 117.367188 33.75 L 107.105469 33.75 C 105.800781 33.75 104.734375 34.816406 104.734375 36.117188 C 104.734375 37.421875 105.800781 38.488281 107.105469 38.488281 L 124.058594 38.488281 C 125.363281 38.488281 126.425781 39.550781 126.425781 40.855469 C 126.425781 42.15625 125.363281 43.222656 124.058594 43.222656 L 117.164062 43.222656 C 115.859375 43.222656 114.792969 44.289062 114.792969 45.589844 C 114.792969 46.894531 115.859375 47.957031 117.164062 47.957031 L 143.289062 47.957031 C 144.84375 47.957031 146.113281 46.6875 146.113281 45.136719 L 146.113281 41.410156 L 140.878906 41.410156 C 140.414062 41.410156 140.039062 41.03125 140.039062 40.570312 C 140.039062 40.109375 140.414062 39.730469 140.878906 39.730469 L 147.574219 39.730469 C 148.457031 39.730469 149.175781 39.011719 149.175781 38.128906 L 149.175781 30.984375 C 149.175781 30.105469 148.457031 29.382812 147.574219 29.382812 L 137.976562 29.382812 C 137.515625 29.382812 137.136719 29.007812 137.136719 28.546875 C 137.136719 28.082031 137.515625 27.703125 137.976562 27.703125 L 146.113281 27.703125 Z M 137.722656 33.089844 C 136.910156 33.089844 136.25 33.746094 136.25 34.558594 C 136.25 35.371094 136.910156 36.027344 137.722656 36.027344 C 138.53125 36.027344 139.191406 35.371094 139.191406 34.558594 C 139.191406 33.746094 138.53125 33.089844 137.722656 33.089844 Z M 134.226562 34.558594 C 134.226562 32.636719 135.800781 31.0625 137.722656 31.0625 L 147.496094 31.0625 L 147.496094 38.050781 L 137.722656 38.050781 C 135.800781 38.050781 134.226562 36.480469 134.226562 34.558594 Z M 134.226562 34.558594 " fill-opacity="1" fill-rule="evenodd"/></g><g fill="#000000" fill-opacity="1"><g transform="translate(151.824673, 39.135385)"><g><path d="M 1.15625 -11.640625 L 5.984375 -11.640625 C 6.578125 -11.640625 7.125 -11.535156 7.625 -11.328125 C 8.132812 -11.128906 8.566406 -10.851562 8.921875 -10.5 C 9.273438 -10.15625 9.550781 -9.738281 9.75 -9.25 C 9.957031 -8.757812 10.0625 -8.222656 10.0625 -7.640625 C 10.0625 -7.054688 9.957031 -6.519531 9.75 -6.03125 C 9.550781 -5.539062 9.273438 -5.117188 8.921875 -4.765625 C 8.566406 -4.421875 8.132812 -4.148438 7.625 -3.953125 C 7.125 -3.753906 6.578125 -3.65625 5.984375 -3.65625 L 3.65625 -3.65625 L 3.65625 0 L 1.15625 0 Z M 5.734375 -5.90625 C 6.316406 -5.90625 6.765625 -6.054688 7.078125 -6.359375 C 7.398438 -6.671875 7.5625 -7.097656 7.5625 -7.640625 C 7.5625 -8.191406 7.398438 -8.617188 7.078125 -8.921875 C 6.765625 -9.234375 6.316406 -9.390625 5.734375 -9.390625 L 3.65625 -9.390625 L 3.65625 -5.90625 Z M 5.734375 -5.90625 "/></g></g></g><g fill="#000000" fill-opacity="1"><g transform="translate(161.515978, 39.135385)"><g><path d="M 4.90625 0.171875 C 4.238281 0.171875 3.640625 0.0664062 3.109375 -0.140625 C 2.578125 -0.347656 2.125 -0.644531 1.75 -1.03125 C 1.375 -1.414062 1.082031 -1.890625 0.875 -2.453125 C 0.675781 -3.023438 0.578125 -3.675781 0.578125 -4.40625 C 0.578125 -5.132812 0.675781 -5.78125 0.875 -6.34375 C 1.082031 -6.914062 1.375 -7.394531 1.75 -7.78125 C 2.125 -8.164062 2.578125 -8.460938 3.109375 -8.671875 C 3.640625 -8.878906 4.238281 -8.984375 4.90625 -8.984375 C 5.550781 -8.984375 6.132812 -8.875 6.65625 -8.65625 C 7.175781 -8.4375 7.617188 -8.128906 7.984375 -7.734375 C 8.359375 -7.347656 8.644531 -6.882812 8.84375 -6.34375 C 9.039062 -5.800781 9.140625 -5.210938 9.140625 -4.578125 C 9.140625 -4.453125 9.132812 -4.332031 9.125 -4.21875 C 9.113281 -4.113281 9.101562 -4.015625 9.09375 -3.921875 C 9.082031 -3.828125 9.070312 -3.738281 9.0625 -3.65625 L 3 -3.65625 C 3.082031 -3.15625 3.269531 -2.738281 3.5625 -2.40625 C 3.863281 -2.070312 4.3125 -1.90625 4.90625 -1.90625 C 5.363281 -1.90625 5.695312 -1.976562 5.90625 -2.125 C 6.125 -2.28125 6.316406 -2.488281 6.484375 -2.75 L 8.984375 -2.75 C 8.878906 -2.363281 8.722656 -1.992188 8.515625 -1.640625 C 8.316406 -1.296875 8.050781 -0.988281 7.71875 -0.71875 C 7.394531 -0.445312 7 -0.226562 6.53125 -0.0625 C 6.0625 0.09375 5.519531 0.171875 4.90625 0.171875 Z M 6.734375 -5.40625 C 6.691406 -5.59375 6.625 -5.773438 6.53125 -5.953125 C 6.4375 -6.128906 6.3125 -6.289062 6.15625 -6.4375 C 6.007812 -6.582031 5.828125 -6.695312 5.609375 -6.78125 C 5.398438 -6.863281 5.164062 -6.90625 4.90625 -6.90625 C 4.363281 -6.90625 3.9375 -6.757812 3.625 -6.46875 C 3.320312 -6.175781 3.113281 -5.820312 3 -5.40625 Z M 6.734375 -5.40625 "/></g></g></g><g fill="#000000" fill-opacity="1"><g transform="translate(170.209884, 39.135385)"><g><path d="M 1 -8.8125 L 3 -8.8125 L 3.234375 -7.8125 L 3.328125 -7.8125 C 3.609375 -8.1875 3.945312 -8.472656 4.34375 -8.671875 C 4.75 -8.878906 5.1875 -8.984375 5.65625 -8.984375 C 6.132812 -8.984375 6.570312 -8.898438 6.96875 -8.734375 C 7.363281 -8.578125 7.703125 -8.34375 7.984375 -8.03125 C 8.265625 -7.71875 8.484375 -7.34375 8.640625 -6.90625 C 8.804688 -6.46875 8.890625 -5.96875 8.890625 -5.40625 L 8.890625 0 L 6.5625 0 L 6.5625 -5.078125 C 6.5625 -5.660156 6.421875 -6.109375 6.140625 -6.421875 C 5.867188 -6.742188 5.484375 -6.90625 4.984375 -6.90625 C 4.484375 -6.90625 4.082031 -6.734375 3.78125 -6.390625 C 3.476562 -6.054688 3.328125 -5.617188 3.328125 -5.078125 L 3.328125 0 L 1 0 Z M 1 -8.8125 "/></g></g></g><g fill="#000000" fill-opacity="1"><g transform="translate(178.986909, 39.135385)"><g><path d="M 1 -8.8125 L 3 -8.8125 L 3.234375 -7.8125 L 3.328125 -7.8125 C 3.609375 -8.1875 3.945312 -8.472656 4.34375 -8.671875 C 4.75 -8.878906 5.1875 -8.984375 5.65625 -8.984375 C 6.132812 -8.984375 6.570312 -8.898438 6.96875 -8.734375 C 7.363281 -8.578125 7.703125 -8.34375 7.984375 -8.03125 C 8.265625 -7.71875 8.484375 -7.34375 8.640625 -6.90625 C 8.804688 -6.46875 8.890625 -5.96875 8.890625 -5.40625 L 8.890625 0 L 6.5625 0 L 6.5625 -5.078125 C 6.5625 -5.660156 6.421875 -6.109375 6.140625 -6.421875 C 5.867188 -6.742188 5.484375 -6.90625 4.984375 -6.90625 C 4.484375 -6.90625 4.082031 -6.734375 3.78125 -6.390625 C 3.476562 -6.054688 3.328125 -5.617188 3.328125 -5.078125 L 3.328125 0 L 1 0 Z M 1 -8.8125 "/></g></g></g><g fill="#000000" fill-opacity="1"><g transform="translate(187.763932, 39.135385)"><g><path d="M 3.515625 0 L -0.078125 -8.8125 L 2.5 -8.8125 L 4.65625 -3.078125 L 4.71875 -3.078125 L 6.8125 -8.8125 L 9.390625 -8.8125 L 4.578125 3.328125 L 2.15625 3.328125 Z M 3.515625 0 "/></g></g></g><g fill="#000000" fill-opacity="1"><g transform="translate(196.042258, 39.135385)"><g><path d="M 1.15625 -11.640625 L 5.984375 -11.640625 C 6.578125 -11.640625 7.125 -11.535156 7.625 -11.328125 C 8.132812 -11.128906 8.566406 -10.851562 8.921875 -10.5 C 9.273438 -10.15625 9.550781 -9.738281 9.75 -9.25 C 9.957031 -8.757812 10.0625 -8.222656 10.0625 -7.640625 C 10.0625 -7.054688 9.957031 -6.519531 9.75 -6.03125 C 9.550781 -5.539062 9.273438 -5.117188 8.921875 -4.765625 C 8.566406 -4.421875 8.132812 -4.148438 7.625 -3.953125 C 7.125 -3.753906 6.578125 -3.65625 5.984375 -3.65625 L 3.65625 -3.65625 L 3.65625 0 L 1.15625 0 Z M 5.734375 -5.90625 C 6.316406 -5.90625 6.765625 -6.054688 7.078125 -6.359375 C 7.398438 -6.671875 7.5625 -7.097656 7.5625 -7.640625 C 7.5625 -8.191406 7.398438 -8.617188 7.078125 -8.921875 C 6.765625 -9.234375 6.316406 -9.390625 5.734375 -9.390625 L 3.65625 -9.390625 L 3.65625 -5.90625 Z M 5.734375 -5.90625 "/></g></g></g><g fill="#000000" fill-opacity="1"><g transform="translate(205.733563, 39.135385)"><g><path d="M 4.90625 0.171875 C 4.238281 0.171875 3.640625 0.0664062 3.109375 -0.140625 C 2.578125 -0.347656 2.125 -0.644531 1.75 -1.03125 C 1.375 -1.414062 1.082031 -1.890625 0.875 -2.453125 C 0.675781 -3.023438 0.578125 -3.675781 0.578125 -4.40625 C 0.578125 -5.132812 0.675781 -5.78125 0.875 -6.34375 C 1.082031 -6.914062 1.375 -7.394531 1.75 -7.78125 C 2.125 -8.164062 2.578125 -8.460938 3.109375 -8.671875 C 3.640625 -8.878906 4.238281 -8.984375 4.90625 -8.984375 C 5.550781 -8.984375 6.132812 -8.875 6.65625 -8.65625 C 7.175781 -8.4375 7.617188 -8.128906 7.984375 -7.734375 C 8.359375 -7.347656 8.644531 -6.882812 8.84375 -6.34375 C 9.039062 -5.800781 9.140625 -5.210938 9.140625 -4.578125 C 9.140625 -4.453125 9.132812 -4.332031 9.125 -4.21875 C 9.113281 -4.113281 9.101562 -4.015625 9.09375 -3.921875 C 9.082031 -3.828125 9.070312 -3.738281 9.0625 -3.65625 L 3 -3.65625 C 3.082031 -3.15625 3.269531 -2.738281 3.5625 -2.40625 C 3.863281 -2.070312 4.3125 -1.90625 4.90625 -1.90625 C 5.363281 -1.90625 5.695312 -1.976562 5.90625 -2.125 C 6.125 -2.28125 6.316406 -2.488281 6.484375 -2.75 L 8.984375 -2.75 C 8.878906 -2.363281 8.722656 -1.992188 8.515625 -1.640625 C 8.316406 -1.296875 8.050781 -0.988281 7.71875 -0.71875 C 7.394531 -0.445312 7 -0.226562 6.53125 -0.0625 C 6.0625 0.09375 5.519531 0.171875 4.90625 0.171875 Z M 6.734375 -5.40625 C 6.691406 -5.59375 6.625 -5.773438 6.53125 -5.953125 C 6.4375 -6.128906 6.3125 -6.289062 6.15625 -6.4375 C 6.007812 -6.582031 5.828125 -6.695312 5.609375 -6.78125 C 5.398438 -6.863281 5.164062 -6.90625 4.90625 -6.90625 C 4.363281 -6.90625 3.9375 -6.757812 3.625 -6.46875 C 3.320312 -6.175781 3.113281 -5.820312 3 -5.40625 Z M 6.734375 -5.40625 "/></g></g></g><g fill="#000000" fill-opacity="1"><g transform="translate(214.427468, 39.135385)"><g><path d="M 1 -8.8125 L 3 -8.8125 L 3.234375 -7.8125 L 3.328125 -7.8125 C 3.578125 -8.1875 3.878906 -8.445312 4.234375 -8.59375 C 4.585938 -8.738281 4.976562 -8.8125 5.40625 -8.8125 L 6.484375 -8.8125 L 6.484375 -6.5625 L 5.5625 -6.5625 C 4.851562 -6.5625 4.300781 -6.367188 3.90625 -5.984375 C 3.519531 -5.597656 3.328125 -5.070312 3.328125 -4.40625 L 3.328125 0 L 1 0 Z M 1 -8.8125 "/></g></g></g><g fill="#000000" fill-opacity="1"><g transform="translate(220.129183, 39.135385)"><g><path d="M 1.75 -6.65625 L 0.328125 -6.65625 L 0.328125 -8.8125 L 1.75 -8.8125 L 1.75 -9.5625 C 1.75 -10.394531 1.972656 -11.03125 2.421875 -11.46875 C 2.878906 -11.914062 3.566406 -12.140625 4.484375 -12.140625 L 6.15625 -12.140625 L 6.15625 -10.0625 L 4.90625 -10.0625 C 4.644531 -10.0625 4.441406 -9.984375 4.296875 -9.828125 C 4.148438 -9.679688 4.078125 -9.484375 4.078125 -9.234375 L 4.078125 -8.8125 L 6.15625 -8.8125 L 6.15625 -6.65625 L 4.078125 -6.65625 L 4.078125 0 L 1.75 0 Z M 1.75 -6.65625 "/></g></g></g><g fill="#000000" fill-opacity="1"><g transform="translate(225.581546, 39.135385)"><g><path d="M 4.90625 0.171875 C 4.238281 0.171875 3.640625 0.0664062 3.109375 -0.140625 C 2.578125 -0.347656 2.125 -0.644531 1.75 -1.03125 C 1.375 -1.414062 1.082031 -1.890625 0.875 -2.453125 C 0.675781 -3.023438 0.578125 -3.675781 0.578125 -4.40625 C 0.578125 -5.132812 0.675781 -5.78125 0.875 -6.34375 C 1.082031 -6.914062 1.375 -7.394531 1.75 -7.78125 C 2.125 -8.164062 2.578125 -8.460938 3.109375 -8.671875 C 3.640625 -8.878906 4.238281 -8.984375 4.90625 -8.984375 C 5.550781 -8.984375 6.132812 -8.875 6.65625 -8.65625 C 7.175781 -8.4375 7.617188 -8.128906 7.984375 -7.734375 C 8.359375 -7.347656 8.644531 -6.882812 8.84375 -6.34375 C 9.039062 -5.800781 9.140625 -5.210938 9.140625 -4.578125 C 9.140625 -4.453125 9.132812 -4.332031 9.125 -4.21875 C 9.113281 -4.113281 9.101562 -4.015625 9.09375 -3.921875 C 9.082031 -3.828125 9.070312 -3.738281 9.0625 -3.65625 L 3 -3.65625 C 3.082031 -3.15625 3.269531 -2.738281 3.5625 -2.40625 C 3.863281 -2.070312 4.3125 -1.90625 4.90625 -1.90625 C 5.363281 -1.90625 5.695312 -1.976562 5.90625 -2.125 C 6.125 -2.28125 6.316406 -2.488281 6.484375 -2.75 L 8.984375 -2.75 C 8.878906 -2.363281 8.722656 -1.992188 8.515625 -1.640625 C 8.316406 -1.296875 8.050781 -0.988281 7.71875 -0.71875 C 7.394531 -0.445312 7 -0.226562 6.53125 -0.0625 C 6.0625 0.09375 5.519531 0.171875 4.90625 0.171875 Z M 6.734375 -5.40625 C 6.691406 -5.59375 6.625 -5.773438 6.53125 -5.953125 C 6.4375 -6.128906 6.3125 -6.289062 6.15625 -6.4375 C 6.007812 -6.582031 5.828125 -6.695312 5.609375 -6.78125 C 5.398438 -6.863281 5.164062 -6.90625 4.90625 -6.90625 C 4.363281 -6.90625 3.9375 -6.757812 3.625 -6.46875 C 3.320312 -6.175781 3.113281 -5.820312 3 -5.40625 Z M 6.734375 -5.40625 "/></g></g></g><g fill="#000000" fill-opacity="1"><g transform="translate(234.275452, 39.135385)"><g><path d="M 4.90625 0.171875 C 4.238281 0.171875 3.640625 0.0664062 3.109375 -0.140625 C 2.578125 -0.347656 2.125 -0.644531 1.75 -1.03125 C 1.375 -1.414062 1.082031 -1.890625 0.875 -2.453125 C 0.675781 -3.023438 0.578125 -3.675781 0.578125 -4.40625 C 0.578125 -5.132812 0.675781 -5.78125 0.875 -6.34375 C 1.082031 -6.914062 1.375 -7.394531 1.75 -7.78125 C 2.125 -8.164062 2.578125 -8.460938 3.109375 -8.671875 C 3.640625 -8.878906 4.238281 -8.984375 4.90625 -8.984375 C 5.519531 -8.984375 6.0625 -8.894531 6.53125 -8.71875 C 7 -8.550781 7.394531 -8.316406 7.71875 -8.015625 C 8.050781 -7.722656 8.316406 -7.382812 8.515625 -7 C 8.722656 -6.625 8.878906 -6.226562 8.984375 -5.8125 L 6.65625 -5.8125 C 6.488281 -6.144531 6.269531 -6.410156 6 -6.609375 C 5.738281 -6.804688 5.375 -6.90625 4.90625 -6.90625 C 4.3125 -6.90625 3.828125 -6.695312 3.453125 -6.28125 C 3.085938 -5.863281 2.90625 -5.238281 2.90625 -4.40625 C 2.90625 -3.570312 3.085938 -2.945312 3.453125 -2.53125 C 3.828125 -2.113281 4.3125 -1.90625 4.90625 -1.90625 C 5.375 -1.90625 5.738281 -2.003906 6 -2.203125 C 6.269531 -2.398438 6.488281 -2.664062 6.65625 -3 L 8.984375 -3 C 8.878906 -2.570312 8.722656 -2.171875 8.515625 -1.796875 C 8.316406 -1.421875 8.050781 -1.082031 7.71875 -0.78125 C 7.394531 -0.488281 7 -0.253906 6.53125 -0.078125 C 6.0625 0.0859375 5.519531 0.171875 4.90625 0.171875 Z M 4.90625 0.171875 "/></g></g></g><g fill="#000000" fill-opacity="1"><g transform="translate(242.72001, 39.135385)"><g><path d="M 4.484375 0 C 3.566406 0 2.878906 -0.21875 2.421875 -0.65625 C 1.972656 -1.101562 1.75 -1.742188 1.75 -2.578125 L 1.75 -6.65625 L 0.328125 -6.65625 L 0.328125 -8.8125 L 1.75 -8.8125 L 2.078125 -11.140625 L 4.078125 -11.140625 L 4.078125 -8.8125 L 6.15625 -8.8125 L 6.15625 -6.65625 L 4.078125 -6.65625 L 4.078125 -3 C 4.078125 -2.738281 4.148438 -2.53125 4.296875 -2.375 C 4.441406 -2.226562 4.644531 -2.15625 4.90625 -2.15625 L 6.15625 -2.15625 L 6.15625 0 Z M 4.484375 0 "/></g></g></g></svg>